<mxfile host="app.diagrams.net" modified="2020-12-14T14:15:35.372Z" agent="5.0 (Windows)" etag="7ndieAtezURkW9MtVH8M" version="14.0.0" type="github">
  <diagram id="p7EpNIWao3hXpbfT4_oQ" name="Page-1">
    <mxGraphModel dx="1038" dy="547" grid="1" gridSize="10" guides="1" tooltips="1" connect="1" arrows="1" fold="1" page="1" pageScale="1" pageWidth="1169" pageHeight="827" math="0" shadow="0">
      <root>
        <mxCell id="0" />
        <mxCell id="1" parent="0" />
        <mxCell id="5i2XxdddxOiisHzQCfqY-1" value="TENDERING PROCESS" style="swimlane;" vertex="1" parent="1">
          <mxGeometry x="10" y="10" width="1150" height="810" as="geometry" />
        </mxCell>
        <mxCell id="5i2XxdddxOiisHzQCfqY-2" value="Start" style="rounded=1;whiteSpace=wrap;html=1;" vertex="1" parent="5i2XxdddxOiisHzQCfqY-1">
          <mxGeometry x="100" y="35" width="100" height="50" as="geometry" />
        </mxCell>
        <mxCell id="5i2XxdddxOiisHzQCfqY-3" value="Preparation of tender document by HSCM or procurement Officer" style="rounded=0;whiteSpace=wrap;html=1;" vertex="1" parent="5i2XxdddxOiisHzQCfqY-1">
          <mxGeometry x="80" y="165" width="140" height="80" as="geometry" />
        </mxCell>
        <mxCell id="5i2XxdddxOiisHzQCfqY-4" value="" style="edgeStyle=orthogonalEdgeStyle;rounded=0;orthogonalLoop=1;jettySize=auto;html=1;entryX=0.5;entryY=0;entryDx=0;entryDy=0;" edge="1" parent="5i2XxdddxOiisHzQCfqY-1" source="5i2XxdddxOiisHzQCfqY-2" target="5i2XxdddxOiisHzQCfqY-3">
          <mxGeometry relative="1" as="geometry">
            <mxPoint x="150" y="160" as="targetPoint" />
          </mxGeometry>
        </mxCell>
        <mxCell id="5i2XxdddxOiisHzQCfqY-5" value="Restricted Tender?" style="rhombus;whiteSpace=wrap;html=1;" vertex="1" parent="5i2XxdddxOiisHzQCfqY-1">
          <mxGeometry x="100" y="465" width="100" height="80" as="geometry" />
        </mxCell>
        <mxCell id="5i2XxdddxOiisHzQCfqY-6" value="Selected Bidders download from the specified website or picks and pays for tender documents from the council" style="whiteSpace=wrap;html=1;rounded=0;" vertex="1" parent="5i2XxdddxOiisHzQCfqY-1">
          <mxGeometry x="60" y="616" width="180" height="80" as="geometry" />
        </mxCell>
        <mxCell id="5i2XxdddxOiisHzQCfqY-7" value="" style="edgeStyle=orthogonalEdgeStyle;rounded=0;orthogonalLoop=1;jettySize=auto;html=1;entryX=0.5;entryY=0;entryDx=0;entryDy=0;" edge="1" parent="5i2XxdddxOiisHzQCfqY-1" source="5i2XxdddxOiisHzQCfqY-5" target="5i2XxdddxOiisHzQCfqY-6">
          <mxGeometry relative="1" as="geometry">
            <mxPoint x="150" y="635" as="targetPoint" />
          </mxGeometry>
        </mxCell>
        <mxCell id="5i2XxdddxOiisHzQCfqY-8" value="yes" style="text;html=1;strokeColor=none;fillColor=none;align=center;verticalAlign=middle;whiteSpace=wrap;rounded=0;" vertex="1" parent="5i2XxdddxOiisHzQCfqY-1">
          <mxGeometry x="150" y="565" width="40" height="20" as="geometry" />
        </mxCell>
        <mxCell id="5i2XxdddxOiisHzQCfqY-9" value="Selected Bidders download from the specified website or picks and pays for tender documents from the council" style="whiteSpace=wrap;html=1;rounded=0;" vertex="1" parent="5i2XxdddxOiisHzQCfqY-1">
          <mxGeometry x="275" y="465" width="180" height="80" as="geometry" />
        </mxCell>
        <mxCell id="5i2XxdddxOiisHzQCfqY-10" value="" style="edgeStyle=orthogonalEdgeStyle;rounded=0;orthogonalLoop=1;jettySize=auto;html=1;entryX=0;entryY=0.5;entryDx=0;entryDy=0;" edge="1" parent="5i2XxdddxOiisHzQCfqY-1" source="5i2XxdddxOiisHzQCfqY-5" target="5i2XxdddxOiisHzQCfqY-9">
          <mxGeometry relative="1" as="geometry">
            <mxPoint x="270" y="505" as="targetPoint" />
          </mxGeometry>
        </mxCell>
        <mxCell id="5i2XxdddxOiisHzQCfqY-11" value="Bidders complete the tender document and attach all requisite documents and drop in the tender box within the stipulated time" style="whiteSpace=wrap;html=1;rounded=0;" vertex="1" parent="5i2XxdddxOiisHzQCfqY-1">
          <mxGeometry x="405" y="611" width="170" height="90" as="geometry" />
        </mxCell>
        <mxCell id="5i2XxdddxOiisHzQCfqY-12" value="" style="edgeStyle=orthogonalEdgeStyle;rounded=0;orthogonalLoop=1;jettySize=auto;html=1;" edge="1" parent="5i2XxdddxOiisHzQCfqY-1" source="5i2XxdddxOiisHzQCfqY-6" target="5i2XxdddxOiisHzQCfqY-11">
          <mxGeometry relative="1" as="geometry" />
        </mxCell>
        <mxCell id="5i2XxdddxOiisHzQCfqY-13" value="" style="edgeStyle=orthogonalEdgeStyle;rounded=0;orthogonalLoop=1;jettySize=auto;html=1;exitX=0.5;exitY=1;exitDx=0;exitDy=0;entryX=0;entryY=0.5;entryDx=0;entryDy=0;" edge="1" parent="5i2XxdddxOiisHzQCfqY-1" source="5i2XxdddxOiisHzQCfqY-9" target="5i2XxdddxOiisHzQCfqY-11">
          <mxGeometry relative="1" as="geometry" />
        </mxCell>
        <mxCell id="5i2XxdddxOiisHzQCfqY-14" value="HSCM recommends Opening and evaluation committee for appointment" style="whiteSpace=wrap;html=1;rounded=0;" vertex="1" parent="5i2XxdddxOiisHzQCfqY-1">
          <mxGeometry x="420" y="365" width="140" height="79" as="geometry" />
        </mxCell>
        <mxCell id="5i2XxdddxOiisHzQCfqY-15" value="" style="edgeStyle=orthogonalEdgeStyle;rounded=0;orthogonalLoop=1;jettySize=auto;html=1;" edge="1" parent="5i2XxdddxOiisHzQCfqY-1" source="5i2XxdddxOiisHzQCfqY-11" target="5i2XxdddxOiisHzQCfqY-14">
          <mxGeometry relative="1" as="geometry" />
        </mxCell>
        <mxCell id="5i2XxdddxOiisHzQCfqY-16" value="Opening committee convenes to open the tenders" style="whiteSpace=wrap;html=1;rounded=0;" vertex="1" parent="5i2XxdddxOiisHzQCfqY-1">
          <mxGeometry x="430" y="105" width="120" height="60" as="geometry" />
        </mxCell>
        <mxCell id="5i2XxdddxOiisHzQCfqY-17" value="Evaluation committee convenes to evaluate the tender documents and forward recommendation to HSCM " style="whiteSpace=wrap;html=1;rounded=0;" vertex="1" parent="5i2XxdddxOiisHzQCfqY-1">
          <mxGeometry x="680" y="90" width="150" height="90" as="geometry" />
        </mxCell>
        <mxCell id="5i2XxdddxOiisHzQCfqY-18" value="" style="edgeStyle=orthogonalEdgeStyle;rounded=0;orthogonalLoop=1;jettySize=auto;html=1;" edge="1" parent="5i2XxdddxOiisHzQCfqY-1" source="5i2XxdddxOiisHzQCfqY-16" target="5i2XxdddxOiisHzQCfqY-17">
          <mxGeometry relative="1" as="geometry" />
        </mxCell>
        <mxCell id="5i2XxdddxOiisHzQCfqY-19" value="HSCM reviews the report and prepares professional procurement opinion and forwards to the CEO" style="whiteSpace=wrap;html=1;rounded=0;" vertex="1" parent="5i2XxdddxOiisHzQCfqY-1">
          <mxGeometry x="660" y="235" width="190" height="67.5" as="geometry" />
        </mxCell>
        <mxCell id="5i2XxdddxOiisHzQCfqY-20" value="" style="edgeStyle=orthogonalEdgeStyle;rounded=0;orthogonalLoop=1;jettySize=auto;html=1;entryX=0.5;entryY=0;entryDx=0;entryDy=0;" edge="1" parent="5i2XxdddxOiisHzQCfqY-1" source="5i2XxdddxOiisHzQCfqY-17" target="5i2XxdddxOiisHzQCfqY-19">
          <mxGeometry relative="1" as="geometry">
            <mxPoint x="755" y="275" as="targetPoint" />
          </mxGeometry>
        </mxCell>
        <mxCell id="5i2XxdddxOiisHzQCfqY-21" value="&lt;div&gt;CEO &lt;br&gt;&lt;/div&gt;&lt;div&gt;agrees?&lt;/div&gt;" style="rhombus;whiteSpace=wrap;html=1;rounded=0;" vertex="1" parent="5i2XxdddxOiisHzQCfqY-1">
          <mxGeometry x="712.5" y="345" width="85" height="80" as="geometry" />
        </mxCell>
        <mxCell id="5i2XxdddxOiisHzQCfqY-22" value="" style="edgeStyle=orthogonalEdgeStyle;rounded=0;orthogonalLoop=1;jettySize=auto;html=1;" edge="1" parent="5i2XxdddxOiisHzQCfqY-1" source="5i2XxdddxOiisHzQCfqY-19" target="5i2XxdddxOiisHzQCfqY-21">
          <mxGeometry relative="1" as="geometry" />
        </mxCell>
        <mxCell id="5i2XxdddxOiisHzQCfqY-23" value="" style="edgeStyle=orthogonalEdgeStyle;rounded=0;orthogonalLoop=1;jettySize=auto;html=1;entryX=0.5;entryY=0;entryDx=0;entryDy=0;" edge="1" parent="5i2XxdddxOiisHzQCfqY-1" source="5i2XxdddxOiisHzQCfqY-21" target="5i2XxdddxOiisHzQCfqY-24">
          <mxGeometry relative="1" as="geometry">
            <mxPoint x="755" y="495" as="targetPoint" />
          </mxGeometry>
        </mxCell>
        <mxCell id="5i2XxdddxOiisHzQCfqY-24" value="Notification of award to successful/ unsuccessful bidder" style="whiteSpace=wrap;html=1;rounded=0;" vertex="1" parent="5i2XxdddxOiisHzQCfqY-1">
          <mxGeometry x="680" y="475" width="150" height="60" as="geometry" />
        </mxCell>
        <mxCell id="5i2XxdddxOiisHzQCfqY-25" value="Supplier acknowledges receipt of award through a formal acceptance letter within the stipulated timelines(7days)" style="whiteSpace=wrap;html=1;rounded=0;" vertex="1" parent="5i2XxdddxOiisHzQCfqY-1">
          <mxGeometry x="650" y="585" width="210" height="70" as="geometry" />
        </mxCell>
        <mxCell id="5i2XxdddxOiisHzQCfqY-26" value="" style="edgeStyle=orthogonalEdgeStyle;rounded=0;orthogonalLoop=1;jettySize=auto;html=1;" edge="1" parent="5i2XxdddxOiisHzQCfqY-1" source="5i2XxdddxOiisHzQCfqY-24" target="5i2XxdddxOiisHzQCfqY-25">
          <mxGeometry relative="1" as="geometry" />
        </mxCell>
        <mxCell id="5i2XxdddxOiisHzQCfqY-27" value="HoD procurement prepares a contract document for the successful bidder and forwards to the CEO for signature" style="whiteSpace=wrap;html=1;rounded=0;" vertex="1" parent="5i2XxdddxOiisHzQCfqY-1">
          <mxGeometry x="660" y="709.25" width="190" height="75" as="geometry" />
        </mxCell>
        <mxCell id="5i2XxdddxOiisHzQCfqY-28" value="" style="edgeStyle=orthogonalEdgeStyle;rounded=0;orthogonalLoop=1;jettySize=auto;html=1;exitX=0.5;exitY=1;exitDx=0;exitDy=0;" edge="1" parent="5i2XxdddxOiisHzQCfqY-1" source="5i2XxdddxOiisHzQCfqY-25" target="5i2XxdddxOiisHzQCfqY-27">
          <mxGeometry relative="1" as="geometry">
            <mxPoint x="754.5" y="646.75" as="sourcePoint" />
          </mxGeometry>
        </mxCell>
        <mxCell id="5i2XxdddxOiisHzQCfqY-29" value="Accounting officer issues a signed contract document to the bidder who also signs the contract" style="whiteSpace=wrap;html=1;rounded=0;" vertex="1" parent="5i2XxdddxOiisHzQCfqY-1">
          <mxGeometry x="937" y="701.75" width="140" height="90" as="geometry" />
        </mxCell>
        <mxCell id="5i2XxdddxOiisHzQCfqY-30" value="" style="edgeStyle=orthogonalEdgeStyle;rounded=0;orthogonalLoop=1;jettySize=auto;html=1;" edge="1" parent="5i2XxdddxOiisHzQCfqY-1" source="5i2XxdddxOiisHzQCfqY-27" target="5i2XxdddxOiisHzQCfqY-29">
          <mxGeometry relative="1" as="geometry" />
        </mxCell>
        <mxCell id="5i2XxdddxOiisHzQCfqY-31" value="CEO Recommend to the committee /HOD procurement to re-evaluate, or terminates the procurement proceedings" style="whiteSpace=wrap;html=1;rounded=0;" vertex="1" parent="5i2XxdddxOiisHzQCfqY-1">
          <mxGeometry x="917" y="335" width="160" height="100" as="geometry" />
        </mxCell>
        <mxCell id="5i2XxdddxOiisHzQCfqY-32" value="" style="edgeStyle=orthogonalEdgeStyle;rounded=0;orthogonalLoop=1;jettySize=auto;html=1;entryX=0;entryY=0.5;entryDx=0;entryDy=0;" edge="1" parent="5i2XxdddxOiisHzQCfqY-1" source="5i2XxdddxOiisHzQCfqY-21" target="5i2XxdddxOiisHzQCfqY-31">
          <mxGeometry relative="1" as="geometry">
            <mxPoint x="860" y="404" as="targetPoint" />
          </mxGeometry>
        </mxCell>
        <mxCell id="5i2XxdddxOiisHzQCfqY-33" value="" style="edgeStyle=orthogonalEdgeStyle;rounded=0;orthogonalLoop=1;jettySize=auto;html=1;entryX=1;entryY=0.5;entryDx=0;entryDy=0;" edge="1" parent="5i2XxdddxOiisHzQCfqY-1" source="5i2XxdddxOiisHzQCfqY-31" target="5i2XxdddxOiisHzQCfqY-17">
          <mxGeometry relative="1" as="geometry">
            <mxPoint x="997" y="235" as="targetPoint" />
            <Array as="points">
              <mxPoint x="990" y="135" />
            </Array>
          </mxGeometry>
        </mxCell>
        <mxCell id="5i2XxdddxOiisHzQCfqY-34" value="yes" style="text;html=1;strokeColor=none;fillColor=none;align=center;verticalAlign=middle;whiteSpace=wrap;rounded=0;" vertex="1" parent="5i2XxdddxOiisHzQCfqY-1">
          <mxGeometry x="830" y="364" width="40" height="20" as="geometry" />
        </mxCell>
        <mxCell id="5i2XxdddxOiisHzQCfqY-35" value="no" style="text;html=1;strokeColor=none;fillColor=none;align=center;verticalAlign=middle;whiteSpace=wrap;rounded=0;" vertex="1" parent="5i2XxdddxOiisHzQCfqY-1">
          <mxGeometry x="750" y="435" width="40" height="20" as="geometry" />
        </mxCell>
        <mxCell id="5i2XxdddxOiisHzQCfqY-36" value="" style="edgeStyle=orthogonalEdgeStyle;rounded=0;orthogonalLoop=1;jettySize=auto;html=1;" edge="1" parent="1" source="5i2XxdddxOiisHzQCfqY-37" target="5i2XxdddxOiisHzQCfqY-5">
          <mxGeometry relative="1" as="geometry">
            <mxPoint x="160" y="475" as="targetPoint" />
          </mxGeometry>
        </mxCell>
        <mxCell id="5i2XxdddxOiisHzQCfqY-37" value="HSCM places an advert in the newspapers, website, ppip portal and noticeboards" style="whiteSpace=wrap;html=1;rounded=0;" vertex="1" parent="1">
          <mxGeometry x="70" y="325" width="180" height="80" as="geometry" />
        </mxCell>
        <mxCell id="5i2XxdddxOiisHzQCfqY-38" value="" style="edgeStyle=orthogonalEdgeStyle;rounded=0;orthogonalLoop=1;jettySize=auto;html=1;" edge="1" parent="1" source="5i2XxdddxOiisHzQCfqY-3" target="5i2XxdddxOiisHzQCfqY-37">
          <mxGeometry relative="1" as="geometry" />
        </mxCell>
        <mxCell id="5i2XxdddxOiisHzQCfqY-39" value="no" style="text;html=1;strokeColor=none;fillColor=none;align=center;verticalAlign=middle;whiteSpace=wrap;rounded=0;" vertex="1" parent="1">
          <mxGeometry x="233" y="495" width="40" height="20" as="geometry" />
        </mxCell>
        <mxCell id="5i2XxdddxOiisHzQCfqY-40" value="" style="edgeStyle=orthogonalEdgeStyle;rounded=0;orthogonalLoop=1;jettySize=auto;html=1;" edge="1" parent="1" source="5i2XxdddxOiisHzQCfqY-41" target="5i2XxdddxOiisHzQCfqY-16">
          <mxGeometry relative="1" as="geometry" />
        </mxCell>
        <mxCell id="5i2XxdddxOiisHzQCfqY-41" value="Director/CEO reviews the opening and evaluation committee (he/she &lt;br&gt;may remove or add to the list of members) and appoints them" style="whiteSpace=wrap;html=1;rounded=0;" vertex="1" parent="1">
          <mxGeometry x="410" y="225" width="180" height="100" as="geometry" />
        </mxCell>
        <mxCell id="5i2XxdddxOiisHzQCfqY-42" value="" style="edgeStyle=orthogonalEdgeStyle;rounded=0;orthogonalLoop=1;jettySize=auto;html=1;" edge="1" parent="1" source="5i2XxdddxOiisHzQCfqY-14" target="5i2XxdddxOiisHzQCfqY-41">
          <mxGeometry relative="1" as="geometry" />
        </mxCell>
        <mxCell id="5i2XxdddxOiisHzQCfqY-43" value="End" style="rounded=1;whiteSpace=wrap;html=1;" vertex="1" parent="1">
          <mxGeometry x="972" y="606.75" width="90" height="50" as="geometry" />
        </mxCell>
        <mxCell id="5i2XxdddxOiisHzQCfqY-44" value="" style="edgeStyle=orthogonalEdgeStyle;rounded=0;orthogonalLoop=1;jettySize=auto;html=1;entryX=0.5;entryY=1;entryDx=0;entryDy=0;" edge="1" parent="1" source="5i2XxdddxOiisHzQCfqY-29" target="5i2XxdddxOiisHzQCfqY-43">
          <mxGeometry relative="1" as="geometry">
            <mxPoint x="1007" y="624.25" as="targetPoint" />
          </mxGeometry>
        </mxCell>
      </root>
    </mxGraphModel>
  </diagram>
</mxfile>
